<svg xmlns="http://www.w3.org/2000/svg" viewBox="0 0 800 800" width="800" height="800" role="img" aria-label="gentle body lotion">
<defs>
<linearGradient id="bg" x1="0" y1="0" x2="0" y2="1"><stop offset="0" stop-color="#F3F0F6"/><stop offset="1" stop-color="#E9E3EF"/></linearGradient>
<linearGradient id="glassL" x1="0" y1="0" x2="1" y2="0"><stop offset="0" stop-color="#fff" stop-opacity=".28"/><stop offset=".22" stop-color="#fff" stop-opacity=".02"/><stop offset=".7" stop-color="#000" stop-opacity="0"/><stop offset="1" stop-color="#000" stop-opacity=".14"/></linearGradient>
<filter id="blur" x="-20%" y="-200%" width="140%" height="500%"><feGaussianBlur stdDeviation="9"/></filter>
</defs>
<rect width="800" height="800" fill="url(#bg)"/>
<ellipse cx="400" cy="640" rx="330" ry="46" fill="#fff" opacity=".35"/>
<g transform="translate(400 630) scale(1.22) translate(-400 -630)">
<ellipse cx="400" cy="634" rx="150" ry="18" fill="#000" opacity=".16" filter="url(#blur)"/>
<rect x="286" y="318" width="228" height="312" rx="38" fill="#C9B8DA"/>
<rect x="286" y="318" width="228" height="312" rx="38" fill="url(#glassL)"/>
<rect x="356" y="286" width="88" height="40" rx="6" fill="#FFFFFF"/>
<rect x="382" y="196" width="36" height="96" fill="#FFFFFF"/>
<path d="M366 196 H500 Q520 196 520 214 V222 Q520 238 500 238 H366 Z" fill="#FFFFFF"/>
<path d="M366 196 H500 Q520 196 520 214 V222 Q520 238 500 238 H366 Z" fill="url(#glassL)"/>
<rect x="305.0" y="380" width="190" height="214" rx="6" fill="#FBF9FD" opacity=".94"/>
<text x="400" y="435.64" text-anchor="middle" font-family="'Helvetica Neue', Helvetica, Arial, sans-serif" font-size="12" letter-spacing="4" font-weight="700" fill="#3C2D52" opacity=".7">MARIN</text>
<line x1="386" y1="445.64" x2="414" y2="445.64" stroke="#3C2D52" opacity=".35"/>
<text x="400" y="475.64" text-anchor="middle" font-family="'Helvetica Neue', Helvetica, Arial, sans-serif" font-size="26" font-weight="500" fill="#3C2D52">Body</text>
<text x="400" y="505.64" text-anchor="middle" font-family="'Helvetica Neue', Helvetica, Arial, sans-serif" font-size="26" font-weight="500" fill="#3C2D52">Lotion</text>
<text x="400" y="580" text-anchor="middle" font-family="'Helvetica Neue', Helvetica, Arial, sans-serif" font-size="11" letter-spacing="2" fill="#3C2D52" opacity=".6">250 ML</text>
</g>
</svg>
